<svg width="224" height="85" viewBox="0 0 224 85" fill="none" xmlns="http://www.w3.org/2000/svg">
<g clip-path="url(#clip0_40000394_163)">
<path d="M30.6167 46.6755H34.6188L32.6199 32.5353L30.6211 46.6755H30.6167ZM22 58.7276L28.5267 26.3027H36.8392L43.2399 58.7276H36.283L35.4227 52.5268H29.9128L29.0524 58.7276H22Z" fill="#4A4A4A"/>
<path d="M48.2241 58.7276V32.5989H42.623V26.3027H61.0906V32.5989H55.2114V58.7276H48.2241Z" fill="#4A4A4A"/>
<path d="M70.1679 58.7276V44.9732L63.3066 26.3027H70.8153L73.7093 36.5527L76.6033 26.3027H84.1728L77.3116 44.9732V58.7276H70.1679Z" fill="#4A4A4A"/>
<path d="M93.3755 40.2477C93.4668 40.2477 93.5928 40.2795 93.7449 40.2795C93.8665 40.2795 94.0838 40.3113 94.3271 40.3113C95.7133 40.3113 96.7301 39.9572 97.3428 39.2491C97.9598 38.5409 98.264 37.3834 98.264 35.8445C98.264 34.5281 97.9251 33.5975 97.2776 33.0165C96.6302 32.4354 95.5221 32.1495 93.9839 32.1495H93.3668V40.2477H93.3755ZM86.3579 58.7276L86.3579 26.3027H93.2234C95.7481 26.3027 97.6252 26.4298 98.8245 26.6568C100.024 26.8792 101.041 27.3014 101.871 27.8461C102.979 28.586 103.809 29.6437 104.395 31.0918C104.982 32.5398 105.256 34.2421 105.256 36.2349C105.256 39.5123 104.456 42.0181 102.853 43.7204C101.254 45.4226 98.9114 46.2896 95.835 46.2896H93.3712V58.7276H86.3535H86.3579Z" fill="#4A4A4A"/>
<path d="M115.972 26.3027H108.984V58.7276H115.972V26.3027Z" fill="#4A4A4A"/>
<path d="M133.054 46.1948H139.919C139.919 46.39 139.95 46.6124 139.95 46.8394V47.838C139.95 51.7918 139.15 54.747 137.551 56.6444C135.952 58.5737 133.518 59.5043 130.225 59.5043C128.287 59.5043 126.622 59.1502 125.236 58.442C123.85 57.7339 122.742 56.6762 121.882 55.2599C121.299 54.2658 120.865 52.8495 120.591 51.0519C120.343 49.2498 120.191 46.3945 120.191 42.5042C120.191 38.614 120.313 35.7542 120.591 33.9566C120.839 32.159 121.269 30.7427 121.882 29.7486C122.712 28.3368 123.82 27.2746 125.206 26.5665C126.592 25.8583 128.222 25.5088 130.099 25.5088C133.362 25.5088 135.821 26.5029 137.455 28.4639C139.085 30.4249 139.919 33.3801 139.919 37.3339V38.2009L133.149 38.1691C133.119 35.9539 132.901 33.8658 132.441 32.9625C132.011 32.0637 131.272 31.6143 130.225 31.6143C129.086 31.6143 128.317 32.159 127.917 33.253C127.518 34.347 127.3 37.2068 127.3 41.8642V42.5406C127.3 47.552 127.518 50.6388 127.917 51.7646C128.317 52.8904 129.086 53.4669 130.225 53.4669C131.272 53.4669 132.011 53.0492 132.41 52.2458C132.841 51.4105 133.027 49.8989 133.027 47.6519V46.2038H133.058L133.054 46.1948Z" fill="#4A4A4A"/>
<path d="M150.964 46.6755H154.966L152.968 32.5353L150.969 46.6755H150.964ZM142.348 58.7276L148.874 26.3027H157.183L163.583 58.7276H156.596L155.736 52.5268H150.256L149.396 58.7276H142.348Z" fill="#4A4A4A"/>
<path d="M181.685 58.7276H166.324V26.3027H173.311V52.1727H181.715V58.7276H181.685Z" fill="#4A4A4A"/>
<path d="M194.586 39.013H194.26V40.7016H194.721C195.047 40.7016 195.286 40.6154 195.451 40.4747C195.612 40.334 195.694 40.107 195.694 39.8255C195.694 39.5441 195.612 39.3171 195.425 39.2082C195.264 39.0947 194.964 39.013 194.59 39.013M194.912 37.633C195.881 37.633 196.611 37.801 197.124 38.1687C197.637 38.5364 197.88 39.0402 197.88 39.7166C197.88 40.166 197.771 40.5609 197.528 40.9014C197.285 41.2373 196.963 41.4643 196.528 41.6322L198.01 44.7281H195.69L194.478 41.9954H194.26V44.7281H192.131V37.633H194.912ZM200.522 41.2146C200.522 40.4111 200.37 39.6712 200.092 38.9313C199.814 38.2231 199.383 37.5831 198.862 37.002C198.31 36.4255 197.693 35.9761 197.015 35.6856C196.337 35.3951 195.599 35.2362 194.829 35.2362C194.06 35.2362 193.322 35.3633 192.644 35.6538C191.966 35.9444 191.349 36.362 190.827 36.9385C190.271 37.515 189.871 38.1596 189.563 38.8995C189.285 39.6394 189.133 40.3793 189.133 41.1828C189.133 41.9863 189.285 42.7262 189.563 43.4298C189.841 44.138 190.271 44.778 190.793 45.3591C191.349 45.9356 191.962 46.3532 192.639 46.6755C193.317 46.966 194.056 47.1249 194.825 47.1249C195.594 47.1249 196.303 46.966 197.011 46.6755C197.719 46.385 198.332 45.9356 198.888 45.3591C199.44 44.8143 199.844 44.1697 200.118 43.4616C200.365 42.7852 200.517 42.0498 200.517 41.2146M194.795 33.7246C195.781 33.7246 196.702 33.9198 197.597 34.2693C198.458 34.6552 199.257 35.1681 199.935 35.8763C200.583 36.5844 201.104 37.3879 201.473 38.2867C201.843 39.1855 201.995 40.1524 201.995 41.1783C201.995 42.2042 201.808 43.1711 201.473 44.0381C201.135 44.9369 200.613 45.7086 199.935 46.4167C199.227 47.1249 198.427 47.6696 197.567 48.0872C196.676 48.4731 195.781 48.6637 194.829 48.6637C193.878 48.6637 192.983 48.4731 192.122 48.0872C191.262 47.7014 190.493 47.1567 189.785 46.4485C189.107 45.7404 188.585 44.9369 188.216 44.0381C187.847 43.1393 187.664 42.2087 187.664 41.2101C187.664 40.2114 187.851 39.249 188.216 38.3502C188.585 37.4514 189.107 36.6162 189.815 35.8763C190.462 35.1681 191.232 34.6552 192.092 34.2693C192.922 33.9153 193.847 33.7246 194.799 33.7246" fill="#4A4A4A"/>
</g>
<defs>
<clipPath id="clip0_40000394_163">
<rect width="180" height="34" fill="white" transform="translate(22 25.5)"/>
</clipPath>
</defs>
</svg>
