<svg width="224" height="85" viewBox="0 0 224 85" fill="none" xmlns="http://www.w3.org/2000/svg">
<g clip-path="url(#clip0_40000394_176)">
<path d="M67.5 50.684V52.5731L80.3616 63.0244L81.596 61.4768L72.1944 53.8359C71.9714 53.6543 71.8894 53.3535 71.9814 53.0803C72.0764 52.8071 72.3325 52.6269 72.6188 52.6269H85.7739C86.1451 52.6269 86.4486 52.9306 86.4486 53.307V68.0815L88.4153 69.6815V33.1396L67.5 50.684ZM86.4486 49.9588C86.4486 50.3337 86.1451 50.6389 85.7739 50.6389H72.5037C72.2203 50.6389 71.967 50.4587 71.8692 50.1913C71.7743 49.9196 71.8548 49.6188 72.0706 49.4357L84.5107 38.996C84.8675 38.6966 85.3495 38.6356 85.7681 38.8318C86.1854 39.0294 86.4472 39.4436 86.4472 39.9115V49.9588H86.4486Z" fill="#4A4A4A"/>
<path d="M110.497 14.5V70.5H91.2129V30.6769L93.181 29.0261V67.3204C93.181 67.9773 93.7104 68.512 94.3607 68.512H107.353C108.001 68.512 108.529 67.9773 108.529 67.3204V16.1508L110.497 14.5Z" fill="#4A4A4A"/>
<path d="M130.52 37.2573V32.2104C130.52 31.8529 130.365 31.5201 130.096 31.2949L117.194 20.4672C116.84 20.1707 116.362 20.1097 115.941 20.3073C115.523 20.505 115.263 20.9162 115.263 21.3827V67.3252C115.263 67.9791 115.792 68.5125 116.443 68.5125H129.345C129.995 68.5125 130.52 67.9777 130.52 67.3252V53.8164C130.52 53.1595 129.995 52.6291 129.345 52.6291H123.566V50.6412H132.488V70.5019H113.295V14.6123L132.488 30.718V37.2559H130.52V37.2573Z" fill="#4A4A4A"/>
<path d="M135.283 33.144V69.5667L149.323 58.4978L148.093 56.9414L139.153 63.8949C138.806 64.1739 138.332 64.2277 137.917 64.0315C137.506 63.831 137.251 63.4197 137.251 62.9547V53.8127C137.251 53.1544 137.779 52.6255 138.431 52.6255H154.692C155.314 52.6255 155.931 52.5005 156.501 52.2592V50.8584L135.283 33.1426V33.144ZM150.975 49.8499C150.808 50.3294 150.372 50.6389 149.865 50.6389H138.431C137.779 50.6389 137.251 50.1056 137.251 49.4473V39.8984C137.251 39.4334 137.51 39.0193 137.929 38.8187C138.346 38.6211 138.828 38.6821 139.182 38.9786L150.618 48.5304C151.005 48.8559 151.146 49.3747 150.973 49.8513L150.975 49.8499Z" fill="#4A4A4A"/>
</g>
<defs>
<clipPath id="clip0_40000394_176">
<rect width="89" height="56" fill="white" transform="translate(67.5 14.5)"/>
</clipPath>
</defs>
</svg>
