<svg width="5266" height="540" viewBox="0 0 5266 540" fill="none" xmlns="http://www.w3.org/2000/svg">
<path d="M5059.68 326.4L5059.77 327.497C5061.25 344.649 5067.44 357.204 5078.14 365.502C5088.87 373.826 5104.32 378 5124.58 378V379.2C5083.78 379.2 5061.58 362.4 5058.58 327.601H4977.58C4978.18 364.8 4991.98 392.4 5018.98 410.4C5046.58 428.4 5080.78 437.4 5122.78 437.4C5167.18 437.4 5201.38 428.4 5226.58 409.2C5251.38 390.891 5263.98 365.605 5264.37 333.914L5264.38 332.4C5264.38 319.2 5261.98 307.2 5256.58 296.4C5251.78 286.2 5245.78 277.801 5238.58 271.801C5231.98 265.801 5222.38 259.8 5209.78 255C5197.78 250.2 5186.98 246.6 5178.58 244.2C5170.18 241.8 5158.18 239.4 5143.78 237C5141.98 236.4 5138.98 235.8 5134.18 235.2C5109.58 229.8 5092.18 225.001 5082.58 220.801C5073.28 216.151 5068.48 208.685 5068.19 198.404L5068.18 197.4C5068.18 188.1 5072.12 180.489 5080 175.113L5080.78 174.601C5089.18 169.201 5101.18 166.801 5116.18 166.801L5117.85 166.81C5135.04 166.992 5148.28 170.007 5157.58 176.4C5166.88 182.213 5172.24 193.093 5174.74 207.95L5174.98 209.4L5254.78 208.801C5253.58 175.201 5240.38 150.001 5215.78 133.801C5190.97 118.445 5159.77 110.065 5122.17 109.807L5120.38 109.801C5077.18 109.801 5043.58 118.201 5020.18 134.4C4996.18 151.2 4984.78 174.601 4984.78 204.601L4984.78 206.161C4984.85 213.898 4985.45 220.613 4986.58 226.801C4987.78 234.001 4990.78 240.001 4994.38 245.4C4997.98 250.8 5001.58 255.6 5004.58 259.2C5008.18 263.4 5012.98 267.001 5019.58 270.601C5026.18 274.201 5031.58 276.6 5035.18 279C5039.38 281.4 5045.98 283.201 5054.38 285.601C5062.78 288.001 5069.38 289.8 5072.98 291C5076.58 292.2 5083.18 293.4 5092.78 295.2C5102.38 297.6 5108.98 298.8 5111.38 299.4C5112.58 300 5114.38 300.601 5116.18 300.601C5141.38 306.601 5158.18 311.4 5167.18 316.2C5176.78 321 5180.98 329.401 5180.98 340.801L5180.96 341.917C5180.67 353.361 5175.86 362.025 5165.98 369L5165.5 369.335C5155.35 376.294 5141.71 379.2 5124.58 379.2V378C5141.86 378 5155.38 375.015 5165.29 368.021C5175.18 361.034 5179.78 352.391 5179.78 340.801C5179.78 335.244 5178.75 330.504 5176.62 326.6C5174.5 322.708 5171.24 319.573 5166.64 317.273L5166.63 317.267L5166.61 317.259C5157.79 312.553 5141.19 307.792 5116.02 301.797C5114.11 301.766 5112.26 301.157 5110.98 300.54C5109.79 300.247 5107.62 299.811 5104.53 299.148C5101.38 298.474 5097.33 297.573 5092.53 296.374C5083 294.588 5076.29 293.371 5072.6 292.139C5069.92 291.247 5065.57 290.02 5060 288.445L5054.05 286.754C5045.99 284.452 5039.37 282.65 5035 280.274L5034.58 280.042L5034.55 280.021L5034.51 279.999C5032.78 278.841 5030.58 277.669 5027.95 276.317C5025.67 275.143 5023.07 273.838 5020.23 272.318L5019 271.654C5012.53 268.126 5007.7 264.558 5004.02 260.387L5003.67 259.981L5003.66 259.975L5003.66 259.969C5000.81 256.56 4997.45 252.097 4994.06 247.077L4993.38 246.066C4989.72 240.58 4986.63 234.42 4985.39 226.998C4984.18 220.319 4983.58 213.051 4983.58 204.601C4983.58 174.239 4995.14 150.458 5019.49 133.417L5019.49 133.414C5043.17 117.023 5077.05 108.601 5120.38 108.601C5158.35 108.601 5189.98 116.778 5215.21 132.048L5216.41 132.78L5216.42 132.789L5216.44 132.798C5241.02 148.985 5254.34 174.031 5255.91 207.173L5255.98 208.758L5256.02 209.991L5173.95 210.608L5173.79 209.583C5171.45 194.36 5166.27 183.488 5157.37 177.69L5156.94 177.418L5156.92 177.404L5156.9 177.39C5147.59 170.991 5134.08 168 5116.18 168C5101.27 168 5089.54 170.392 5081.43 175.609C5073.37 180.791 5069.38 188.213 5069.38 197.4L5069.39 198.369C5069.53 203.168 5070.68 207.272 5072.8 210.722C5075.06 214.393 5078.47 217.397 5083.09 219.713C5092.56 223.854 5109.83 228.626 5134.39 234.018C5139.08 234.607 5142.14 235.205 5144.06 235.83C5157.53 238.077 5168.94 240.33 5177.28 242.593L5178.91 243.047C5187.35 245.458 5198.19 249.071 5210.22 253.886C5222.93 258.728 5232.66 264.797 5239.38 270.91C5246.73 277.043 5252.81 285.58 5257.65 295.863C5263.15 306.861 5265.58 319.053 5265.58 332.4L5265.57 333.932C5265.18 365.972 5252.42 391.612 5227.3 410.154C5201.82 429.571 5167.33 438.601 5122.78 438.601C5081.26 438.601 5047.24 429.842 5019.63 412.25L5018.32 411.405L5018.31 411.398C4991.36 393.43 4977.42 366.02 4976.42 329.372L4976.38 327.62L4976.36 326.4H5059.68Z" fill="#BDBBB0"/>
<path d="M4937.18 273.601C4937.18 225.169 4922.64 186.04 4894.72 156.214L4893.38 154.801C4865.03 125.27 4827.38 110.273 4781 109.812L4778.78 109.801C4730.18 109.801 4691.18 124.801 4661.78 154.801C4631.78 184.801 4617.38 224.401 4617.38 273.601L4617.39 275.928C4617.83 324.636 4632.24 363.469 4661.18 393C4689.98 423 4728.98 438 4777.58 438C4824.83 438 4863.36 423.466 4892.02 394.396L4893.38 393C4921.73 363.469 4936.71 324.636 4937.17 275.928L4937.18 273.601ZM4850.78 273C4850.78 242.582 4843.62 218.861 4830.62 201.726C4817.66 184.644 4799.43 175.801 4776.38 175.801C4753.95 175.801 4736.32 184.626 4723.35 202.31L4723.34 202.318L4723.34 202.325C4710.35 219.446 4703.78 243.156 4703.78 274.2C4703.78 305.235 4710.34 329.55 4723.34 347.275C4736.3 364.361 4753.94 373.2 4777.58 373.2V374.4L4776.46 374.394C4753.02 374.117 4735.37 365.128 4722.38 348C4709.18 330 4702.58 305.4 4702.58 274.2C4702.58 243 4709.18 219.001 4722.38 201.601C4735.58 183.601 4753.58 174.601 4776.38 174.601L4777.47 174.607C4800.36 174.884 4818.59 183.872 4831.58 201C4844.78 218.4 4851.98 242.4 4851.98 273C4851.98 304.8 4845.38 329.4 4832.18 347.4L4831.56 348.237C4818.42 365.679 4800.61 374.4 4777.58 374.4V373.2C4800.61 373.2 4818.25 364.37 4831.21 346.69C4844.21 328.965 4850.78 304.646 4850.78 273ZM4938.37 275.939C4937.9 324.905 4922.84 364.046 4894.25 393.831C4865.18 424.107 4825.85 439.2 4777.58 439.2C4728.71 439.2 4689.38 424.108 4660.31 393.831V393.83C4630.66 363.564 4616.18 323.643 4616.18 273.601C4616.18 224.15 4630.66 184.221 4660.93 153.952C4690.59 123.691 4729.92 108.601 4778.78 108.601C4825.71 108.601 4863.97 123.23 4892.88 152.562L4894.25 153.97C4923.29 184.226 4938.38 224.139 4938.38 273.601L4938.37 275.939Z" fill="#BDBBB0"/>
<path d="M4474.09 118.801V428.4H4559.29V118.801H4474.09ZM4474.09 1.2002V73.2002H4559.29V1.2002H4474.09ZM4560.49 429.601H4472.89V117.601H4560.49V429.601ZM4560.49 74.4004H4472.89V0H4560.49V74.4004Z" fill="#BDBBB0"/>
<path d="M4202.16 274.801C4202.16 243.498 4207.98 219.171 4220.75 201.249L4221.36 200.4C4234.56 182.4 4252.56 173.4 4275.96 173.4L4277.55 173.413C4310.27 173.958 4330.03 191.387 4336.84 225.153L4337.16 226.801H4420.56C4416.96 190.801 4401.96 162.601 4376.16 141.601C4350.17 120.929 4317.21 110.141 4277.27 109.809L4275.36 109.801C4227.36 109.801 4188.36 125.4 4159.56 155.4C4130.76 186 4116.36 226.2 4116.36 276C4116.36 324.6 4130.76 363.6 4159.56 393C4187.91 421.35 4224.98 436.328 4271.92 436.789L4274.16 436.801C4314.32 436.801 4347.51 425.754 4373.72 404.233L4374.96 403.2C4401.36 380.4 4416.96 349.2 4422.36 309H4340.16C4332.96 351 4311.36 371.4 4274.16 371.4V370.2C4292.53 370.2 4306.91 365.169 4317.59 355.078C4328.28 344.968 4335.4 329.647 4338.98 308.798L4339.15 307.801H4423.73L4423.55 309.16C4418.12 349.597 4402.41 381.084 4375.75 404.108L4375.74 404.113L4375.73 404.119C4349.08 426.529 4315.2 438 4274.16 438C4225.89 438 4187.77 422.903 4158.71 393.849L4158.7 393.84C4129.65 364.176 4115.16 324.853 4115.16 276C4115.16 225.955 4129.64 185.441 4158.69 154.578L4158.7 154.569L4160.07 153.161C4188.98 123.815 4227.84 108.601 4275.36 108.601C4315.74 108.601 4349.2 119.126 4375.65 139.675L4376.91 140.661L4376.92 140.67C4402.57 161.552 4417.65 189.494 4421.58 224.985L4421.76 226.681L4421.89 228H4336.17L4335.98 227.021C4332.72 209.497 4326.06 196.425 4316.12 187.729C4306.19 179.04 4292.85 174.601 4275.96 174.601C4252.93 174.601 4235.29 183.431 4222.33 201.11C4209.34 218.823 4203.36 243.132 4203.36 274.801L4203.37 276.224C4203.55 305.536 4209.35 328.491 4221.15 344.701L4221.72 345.48C4234.07 361.945 4251.7 370.2 4274.16 370.2V371.4L4273.1 371.395C4250.8 371.136 4233.16 362.738 4220.76 346.2C4208.36 329.663 4202.35 306.148 4202.17 276.229L4202.16 274.801Z" fill="#BDBBB0"/>
<path d="M3765.83 343.801C3765.83 330.49 3767.65 318.951 3771.3 308.601L3771.31 308.579C3774.97 298.816 3780.47 290.255 3788.42 282.919L3788.44 282.901L3788.46 282.885C3796.29 276.257 3803.52 270.829 3810.76 266.002L3810.79 265.982L3810.83 265.964C3818.16 261.686 3827.88 258.052 3839.94 255.036L3839.97 255.028L3840.01 255.021C3852.51 252.64 3862.84 250.216 3870.03 249.017L3870.04 249.016L3870.05 249.015C3877.83 247.817 3888.66 246.013 3902.48 244.211L3902.49 244.209C3932.5 240.607 3952.12 236.421 3962.12 231.715L3962.15 231.702L3962.17 231.69C3967.07 229.672 3970.77 226.672 3973.24 222.781C3975.72 218.885 3977.03 214.019 3977.03 208.2C3977.03 194.698 3972.5 184.743 3963.57 178.114C3954.56 171.436 3940.92 168 3922.43 168C3902.73 168 3888.66 171.592 3879.98 178.537L3879.97 178.549L3879.95 178.561C3870.7 185.499 3864.79 197.145 3862.42 214.364L3862.28 215.4H3780.14L3780.23 214.118C3782.65 179.038 3795.83 152.579 3820.02 134.931C3844.16 117.32 3879.11 108.601 3924.83 108.601C3969.94 108.601 4004 117.016 4026.8 134.039C4049.66 151.111 4061.03 176.706 4061.03 210.601V344.4L4061.04 348.075C4061.26 385.075 4064.74 411.037 4071.4 427.144L4071.73 427.928L4072.45 429.601H3982.74L3982.48 428.753C3980.23 421.437 3977.98 412.032 3976.71 401.023C3950.89 426.471 3917.57 438.601 3877.43 438.601C3843.59 438.601 3816.6 431.004 3796.6 414.508L3795.65 413.716L3795.65 413.71L3795.64 413.703C3776.16 396.654 3765.83 373.513 3765.83 343.801ZM3975.83 279.894C3965.39 285.66 3945.46 291.266 3917.22 295.785L3917.21 295.787L3917.2 295.788C3892.04 299.382 3876.13 304.745 3868.59 310.533C3860.5 317.476 3855.83 327.917 3855.83 340.801L3855.84 341.947C3856.08 353.346 3859.92 362.561 3867.26 369.23L3868.01 369.89C3876.14 376.853 3887.23 380.4 3901.43 380.4V381.601L3900.09 381.59C3886.76 381.379 3876.08 378.004 3868.03 371.465L3867.23 370.801C3859.09 363.826 3854.9 354.035 3854.64 341.975L3854.63 340.801C3854.63 327.601 3859.43 316.801 3867.83 309.601C3875.39 303.788 3890.83 298.539 3914.69 294.943L3917.03 294.601C3947.03 289.801 3967.43 283.801 3977.03 277.801V312.601L3977.03 313.609C3976.82 334.743 3970.22 351.788 3956.63 363.601L3955.98 364.158C3942.25 375.786 3923.87 381.601 3901.43 381.601V380.4C3924.02 380.4 3942.31 374.459 3955.84 362.695C3969.32 350.979 3975.83 333.949 3975.83 312.601V279.894ZM3978.23 208.2C3978.23 220.2 3972.83 228.601 3962.63 232.801C3952.43 237.601 3932.63 241.8 3902.63 245.4C3888.83 247.2 3878.03 249 3870.23 250.2C3863.03 251.4 3852.83 253.8 3840.23 256.2C3828.23 259.2 3818.63 262.8 3811.43 267C3804.23 271.8 3797.03 277.201 3789.23 283.801C3781.43 291.001 3776.03 299.4 3772.43 309C3768.83 319.2 3767.03 330.601 3767.03 343.801L3767.04 345.174C3767.35 373.911 3777.53 396.263 3796.43 412.801C3815.92 429.338 3842.39 437.154 3875.83 437.395L3877.43 437.4C3918.23 437.4 3951.83 424.8 3977.63 398.4C3978.76 409.65 3980.94 419.319 3983.18 426.91L3983.63 428.4H4070.63C4063.66 412.125 4060.06 385.715 4059.84 348.078L4059.83 344.4V210.601C4059.83 143.926 4015.53 110.328 3926.93 109.807L3924.83 109.801C3833.63 109.801 3786.23 144.6 3781.43 214.2H3861.23C3863.59 197.072 3869.44 185.177 3878.78 177.941L3879.23 177.601C3888.23 170.401 3902.63 166.801 3922.43 166.801L3924.16 166.811C3960.21 167.235 3978.23 181.031 3978.23 208.2Z" fill="#BDBBB0"/>
<path d="M3415.83 118.801V538.2H3500.43V390C3521.7 420.712 3552.84 435.728 3593.87 436.189L3595.83 436.2C3635.4 436.2 3667.42 422.247 3691.87 393.768L3693.03 392.4C3717.25 363.46 3729.84 325.217 3730.22 277.672L3730.23 275.4C3730.23 226.379 3718.02 186.659 3693.6 156.814L3692.43 155.4C3667.63 125.869 3634.68 110.873 3594.17 110.411L3592.23 110.4C3550.23 110.4 3518.43 126 3496.23 157.2V118.801H3415.83ZM3497.43 274.2C3497.43 244.669 3503.25 221.533 3516.02 204.793L3516.63 204C3529.83 187.2 3547.83 178.801 3571.23 178.801L3572.3 178.807C3594.59 179.083 3612.24 188.063 3625.23 204.601C3638.43 222.001 3645.03 245.4 3645.03 275.4L3645.03 276.773C3644.82 305.511 3638.23 327.863 3625.23 344.4L3624.61 345.182C3611.49 361.461 3594.28 369.6 3571.83 369.601V368.4C3594.28 368.4 3611.33 360.157 3624.29 343.659C3637.27 327.136 3643.83 304.628 3643.83 275.4C3643.83 245.579 3637.27 222.468 3624.29 205.342C3611.32 188.834 3593.67 180 3571.23 180C3548.17 180 3530.53 188.258 3517.58 204.742C3504.61 221.247 3498.63 244.339 3498.63 274.2L3498.64 275.594C3498.84 304.295 3505.19 326.679 3517.57 342.88L3518.18 343.659C3531.13 360.144 3548.77 368.4 3571.83 368.4V369.601L3570.74 369.594C3548.23 369.339 3530.79 361.202 3517.85 345.182L3517.23 344.4C3504.03 327.6 3497.43 304.2 3497.43 274.2ZM3497.43 153.534C3519.77 123.968 3551.24 109.2 3592.23 109.2C3633.31 109.2 3666.84 123.869 3692.15 153.22L3693.35 154.629C3718.78 184.9 3731.43 225.399 3731.43 275.4L3731.42 277.682C3731.03 325.437 3718.39 363.97 3693.95 393.171C3669.11 422.863 3636.36 437.4 3595.83 437.4C3554.89 437.4 3523.43 423.234 3501.63 393.739V539.4H3414.63V117.601H3497.43V153.534Z" fill="#BDBBB0"/>
<path d="M3160.07 326.4L3160.16 327.497C3161.64 344.649 3167.83 357.204 3178.53 365.502C3189.26 373.826 3204.71 378 3224.97 378V379.2C3184.17 379.2 3161.97 362.4 3158.97 327.601H3077.97C3078.57 364.8 3092.37 392.4 3119.37 410.4C3146.97 428.4 3181.17 437.4 3223.17 437.4C3267.57 437.4 3301.77 428.4 3326.97 409.2C3351.77 390.891 3364.37 365.605 3364.76 333.914L3364.77 332.4C3364.77 319.2 3362.37 307.2 3356.97 296.4C3352.17 286.2 3346.17 277.801 3338.97 271.801C3332.37 265.801 3322.77 259.8 3310.17 255C3298.17 250.2 3287.37 246.6 3278.97 244.2C3270.57 241.8 3258.57 239.4 3244.17 237C3242.37 236.4 3239.37 235.8 3234.57 235.2C3209.97 229.8 3192.57 225.001 3182.97 220.801C3173.67 216.151 3168.87 208.685 3168.58 198.404L3168.57 197.4C3168.57 188.1 3172.51 180.489 3180.39 175.113L3181.17 174.601C3189.57 169.201 3201.57 166.801 3216.57 166.801L3218.24 166.81C3235.43 166.992 3248.67 170.007 3257.97 176.4C3267.27 182.213 3272.63 193.093 3275.13 207.95L3275.37 209.4L3355.17 208.801C3353.97 175.201 3340.77 150.001 3316.17 133.801C3291.36 118.445 3260.16 110.065 3222.56 109.807L3220.77 109.801C3177.57 109.801 3143.97 118.201 3120.57 134.4C3096.57 151.2 3085.17 174.601 3085.17 204.601L3085.17 206.161C3085.25 213.898 3085.84 220.613 3086.97 226.801C3088.17 234.001 3091.17 240.001 3094.77 245.4C3098.37 250.8 3101.97 255.6 3104.97 259.2C3108.57 263.4 3113.37 267.001 3119.97 270.601C3126.57 274.201 3131.97 276.6 3135.57 279C3139.77 281.4 3146.37 283.201 3154.77 285.601C3163.17 288.001 3169.77 289.8 3173.37 291C3176.97 292.2 3183.57 293.4 3193.17 295.2C3202.77 297.6 3209.37 298.8 3211.77 299.4C3212.97 300 3214.77 300.601 3216.57 300.601C3241.77 306.601 3258.57 311.4 3267.57 316.2C3277.17 321 3281.37 329.401 3281.37 340.801L3281.35 341.917C3281.06 353.361 3276.25 362.025 3266.37 369L3265.89 369.335C3255.74 376.294 3242.1 379.2 3224.97 379.2V378C3242.26 378 3255.77 375.015 3265.68 368.021C3275.57 361.034 3280.17 352.391 3280.17 340.801C3280.17 335.244 3279.14 330.504 3277.01 326.6C3274.89 322.708 3271.63 319.573 3267.03 317.273L3267.02 317.267L3267 317.259C3258.18 312.553 3241.58 307.792 3216.42 301.797C3214.5 301.766 3212.65 301.157 3211.37 300.54C3210.18 300.247 3208.01 299.811 3204.92 299.148C3201.77 298.474 3197.72 297.573 3192.92 296.374C3183.39 294.588 3176.69 293.371 3172.99 292.139C3170.31 291.247 3165.96 290.02 3160.39 288.445L3154.44 286.754C3146.38 284.452 3139.76 282.65 3135.39 280.274L3134.97 280.042L3134.94 280.021L3134.9 279.999C3133.17 278.841 3130.97 277.669 3128.34 276.317C3126.06 275.143 3123.46 273.838 3120.62 272.318L3119.39 271.654C3112.92 268.126 3108.09 264.558 3104.41 260.387L3104.06 259.981L3104.05 259.975L3104.05 259.969C3101.2 256.56 3097.84 252.097 3094.45 247.077L3093.77 246.066C3090.11 240.58 3087.02 234.42 3085.78 226.998C3084.57 220.319 3083.97 213.051 3083.97 204.601C3083.97 174.239 3095.54 150.458 3119.88 133.417L3119.88 133.414C3143.56 117.023 3177.44 108.601 3220.77 108.601C3258.74 108.601 3290.37 116.778 3315.6 132.048L3316.8 132.78L3316.81 132.789L3316.83 132.798C3341.41 148.985 3354.74 174.031 3356.3 207.173L3356.37 208.758L3356.41 209.991L3274.34 210.608L3274.18 209.583C3271.84 194.36 3266.66 183.488 3257.76 177.69L3257.33 177.418L3257.31 177.404L3257.29 177.39C3247.98 170.991 3234.47 168 3216.57 168C3201.66 168 3189.93 170.392 3181.82 175.609C3173.76 180.791 3169.77 188.213 3169.77 197.4L3169.78 198.369C3169.92 203.168 3171.07 207.272 3173.19 210.722C3175.45 214.393 3178.86 217.397 3183.48 219.713C3192.95 223.854 3210.22 228.626 3234.78 234.018C3239.47 234.607 3242.53 235.205 3244.45 235.83C3257.92 238.077 3269.33 240.33 3277.67 242.593L3279.3 243.047C3287.74 245.458 3298.58 249.071 3310.61 253.886C3323.32 258.728 3333.05 264.797 3339.77 270.91C3347.12 277.043 3353.2 285.58 3358.04 295.863C3363.54 306.861 3365.97 319.053 3365.97 332.4L3365.96 333.932C3365.57 365.972 3352.81 391.612 3327.69 410.154C3302.21 429.571 3267.72 438.601 3223.17 438.601C3181.65 438.601 3147.63 429.842 3120.02 412.25L3118.71 411.405L3118.7 411.398C3091.75 393.43 3077.81 366.02 3076.81 329.372L3076.77 327.62L3076.75 326.4H3160.07Z" fill="#BDBBB0"/>
<path d="M2735.24 275.4C2735.24 227.145 2749.72 187.239 2779.35 155.786C2808.4 124.32 2845.93 108.601 2891.84 108.601C2938.95 108.601 2976.49 124.924 3004.34 157.014C3032.18 189.089 3046.04 232.597 3046.04 286.801V296.4H2824.04C2824.24 322.619 2830.78 342.288 2842.92 355.591L2842.93 355.601L2842.94 355.61C2855.25 369.679 2872.88 376.2 2895.44 376.2V377.4L2894.37 377.396C2872.08 377.192 2854.44 370.575 2842.04 356.4C2829.44 342.6 2822.84 322.2 2822.84 295.2H3044.84V286.801C3044.84 233.645 3031.46 190.953 3004.72 159.3L3003.44 157.801C2976.27 126.498 2939.8 110.311 2894.02 109.812L2891.84 109.801C2846.24 109.801 2809.04 125.401 2780.24 156.601C2750.84 187.801 2736.44 227.401 2736.44 275.4L2736.45 277.699C2736.89 325.817 2751.29 364.059 2779.64 393C2808.44 423 2846.84 437.4 2894.24 437.4C2929.67 437.4 2959.88 428.679 2985.42 410.665L2986.64 409.801C3012.44 391.801 3030.44 366 3040.04 332.4H2958.44C2946.44 362.4 2925.44 377.4 2895.44 377.4V376.2C2910.23 376.2 2922.72 372.506 2932.99 365.174C2943.26 357.837 2951.39 346.795 2957.32 331.955L2957.62 331.2H3041.63L3041.19 332.73C3031.52 366.564 3013.38 392.601 2987.34 410.772L2987.34 410.773C2961.3 429.543 2930.45 438.601 2894.24 438.601C2846.58 438.6 2807.85 424.112 2778.78 393.839V393.84C2749.72 364.174 2735.24 324.851 2735.24 275.4ZM2892.19 171.605C2912.12 171.808 2927.41 178.407 2938.04 191.4C2949.44 204.6 2956.04 220.8 2957.84 241.2H2822.24C2824.64 219.6 2832.44 202.8 2844.44 190.2C2857.04 178.2 2872.64 171.601 2891.24 171.601L2892.19 171.605ZM2891.24 172.801C2872.96 172.801 2857.66 179.27 2845.29 191.049C2833.75 203.175 2826.13 219.283 2823.59 240H2956.52C2954.6 220.745 2948.31 205.386 2937.65 192.796L2937.13 192.185L2937.12 192.173L2937.11 192.16C2926.58 179.294 2911.35 172.801 2891.24 172.801Z" fill="#BDBBB0"/>
<path d="M2326.28 326.4L2326.37 327.497C2327.85 344.649 2334.04 357.204 2344.74 365.502C2355.47 373.826 2370.92 378 2391.18 378V379.2C2350.38 379.2 2328.18 362.4 2325.18 327.601H2244.18C2244.78 364.8 2258.58 392.4 2285.58 410.4C2313.18 428.4 2347.38 437.4 2389.38 437.4C2433.78 437.4 2467.98 428.4 2493.18 409.2C2517.99 390.891 2530.58 365.605 2530.97 333.914L2530.98 332.4C2530.98 319.2 2528.58 307.2 2523.18 296.4C2518.38 286.2 2512.38 277.801 2505.18 271.801C2498.58 265.801 2488.98 259.8 2476.38 255C2464.38 250.2 2453.58 246.6 2445.18 244.2C2436.78 241.8 2424.78 239.4 2410.38 237C2408.58 236.4 2405.58 235.8 2400.78 235.2C2376.18 229.8 2358.78 225.001 2349.18 220.801C2339.88 216.151 2335.08 208.685 2334.79 198.404L2334.78 197.4C2334.78 188.1 2338.72 180.489 2346.6 175.113L2347.38 174.601C2355.78 169.201 2367.78 166.801 2382.78 166.801L2384.45 166.81C2401.64 166.992 2414.88 170.007 2424.18 176.4C2433.48 182.213 2438.84 193.093 2441.34 207.95L2441.58 209.4L2521.38 208.801C2520.18 175.201 2506.98 150.001 2482.38 133.801C2457.57 118.445 2426.37 110.065 2388.77 109.807L2386.98 109.801C2343.78 109.801 2310.18 118.201 2286.78 134.4C2262.78 151.2 2251.38 174.601 2251.38 204.601L2251.39 206.161C2251.46 213.898 2252.05 220.613 2253.18 226.801C2254.38 234.001 2257.38 240.001 2260.98 245.4C2264.58 250.8 2268.18 255.6 2271.18 259.2C2274.78 263.4 2279.58 267.001 2286.18 270.601C2292.78 274.201 2298.18 276.6 2301.78 279C2305.98 281.4 2312.58 283.201 2320.98 285.601C2329.38 288.001 2335.98 289.8 2339.58 291C2343.18 292.2 2349.78 293.4 2359.38 295.2C2368.98 297.6 2375.58 298.8 2377.98 299.4C2379.18 300 2380.98 300.601 2382.78 300.601C2407.98 306.601 2424.78 311.4 2433.78 316.2C2443.38 321 2447.58 329.401 2447.58 340.801L2447.56 341.917C2447.27 353.361 2442.46 362.025 2432.58 369L2432.1 369.335C2421.95 376.294 2408.31 379.2 2391.18 379.2V378C2408.47 378 2421.98 375.015 2431.89 368.021C2441.78 361.034 2446.38 352.391 2446.38 340.801C2446.38 335.244 2445.36 330.504 2443.23 326.6C2441.1 322.708 2437.84 319.573 2433.24 317.273L2433.23 317.267L2433.21 317.259C2424.39 312.553 2407.79 307.792 2382.63 301.797C2380.71 301.766 2378.86 301.157 2377.58 300.54C2376.39 300.247 2374.22 299.811 2371.13 299.148C2367.98 298.474 2363.93 297.573 2359.13 296.374C2349.6 294.588 2342.9 293.371 2339.2 292.139C2336.52 291.247 2332.17 290.02 2326.6 288.445L2320.65 286.754C2312.59 284.452 2305.97 282.65 2301.6 280.274L2301.18 280.042L2301.15 280.021L2301.11 279.999C2299.38 278.841 2297.18 277.669 2294.55 276.317C2292.27 275.143 2289.67 273.838 2286.83 272.318L2285.6 271.654C2279.14 268.126 2274.3 264.558 2270.62 260.387L2270.27 259.981L2270.26 259.975L2270.26 259.969C2267.42 256.56 2264.05 252.097 2260.66 247.077L2259.98 246.066C2256.32 240.58 2253.23 234.42 2252 226.998C2250.78 220.319 2250.18 213.051 2250.18 204.601C2250.18 174.239 2261.75 150.458 2286.09 133.417L2286.1 133.414C2309.77 117.023 2343.65 108.601 2386.98 108.601C2424.95 108.601 2456.58 116.778 2481.81 132.048L2483.01 132.78L2483.02 132.789L2483.04 132.798C2507.62 148.985 2520.95 174.031 2522.51 207.173L2522.58 208.758L2522.62 209.991L2440.55 210.608L2440.39 209.583C2438.05 194.36 2432.87 183.488 2423.97 177.69L2423.54 177.418L2423.52 177.404L2423.5 177.39C2414.19 170.991 2400.68 168 2382.78 168C2367.87 168 2356.14 170.392 2348.03 175.609C2339.97 180.791 2335.98 188.213 2335.98 197.4L2335.99 198.369C2336.13 203.168 2337.28 207.272 2339.4 210.722C2341.66 214.393 2345.07 217.397 2349.69 219.713C2359.17 223.854 2376.43 228.626 2400.99 234.018C2405.68 234.607 2408.74 235.205 2410.66 235.83C2424.13 238.077 2435.54 240.33 2443.88 242.593L2445.51 243.047C2453.95 245.458 2464.79 249.071 2476.82 253.886C2489.53 258.728 2499.26 264.797 2505.98 270.91C2513.33 277.043 2519.41 285.58 2524.25 295.863C2529.75 306.861 2532.18 319.053 2532.18 332.4L2532.17 333.932C2531.78 365.972 2519.02 391.612 2493.91 410.154C2468.42 429.571 2433.93 438.601 2389.38 438.601C2347.86 438.601 2313.84 429.842 2286.23 412.25L2284.92 411.405L2284.91 411.398C2257.96 393.43 2244.02 366.02 2243.02 329.372L2242.98 327.62L2242.96 326.4H2326.28Z" fill="#BDBBB0"/>
<path d="M2203.78 273.601C2203.78 225.169 2189.25 186.04 2161.32 156.214L2159.98 154.801C2131.63 125.27 2093.98 110.273 2047.6 109.812L2045.38 109.801C1996.78 109.801 1957.78 124.801 1928.38 154.801C1898.38 184.801 1883.98 224.401 1883.98 273.601L1883.99 275.928C1884.43 324.636 1898.84 363.469 1927.78 393C1956.58 423 1995.58 438 2044.18 438C2091.43 438 2129.96 423.466 2158.62 394.396L2159.98 393C2188.33 363.469 2203.31 324.636 2203.77 275.928L2203.78 273.601ZM2117.38 273C2117.38 242.582 2110.22 218.861 2097.22 201.726C2084.27 184.644 2066.03 175.801 2042.98 175.801C2020.55 175.801 2002.92 184.626 1989.95 202.31L1989.94 202.318L1989.94 202.325C1976.95 219.446 1970.38 243.156 1970.38 274.2C1970.38 305.235 1976.95 329.55 1989.94 347.275C2002.9 364.361 2020.54 373.2 2044.18 373.2V374.4L2043.06 374.394C2019.62 374.117 2001.98 365.128 1988.98 348C1975.78 330 1969.18 305.4 1969.18 274.2C1969.18 243.488 1975.58 219.752 1988.37 202.421L1988.98 201.601C2002.18 183.601 2020.18 174.601 2042.98 174.601L2044.07 174.607C2066.96 174.884 2085.19 183.872 2098.18 201C2111.38 218.4 2118.58 242.4 2118.58 273C2118.58 304.8 2111.98 329.4 2098.78 347.4L2098.16 348.237C2085.02 365.679 2067.22 374.4 2044.18 374.4V373.2C2067.21 373.2 2084.85 364.37 2097.81 346.69C2110.81 328.965 2117.38 304.646 2117.38 273ZM2204.97 275.939C2204.51 324.905 2189.44 364.046 2160.85 393.831C2131.78 424.107 2092.45 439.2 2044.18 439.2C1995.32 439.2 1955.98 424.108 1926.92 393.831V393.83C1897.26 363.564 1882.78 323.643 1882.78 273.601C1882.78 224.15 1897.26 184.221 1927.53 153.952C1957.19 123.691 1996.52 108.601 2045.38 108.601C2092.31 108.601 2130.57 123.23 2159.48 152.562L2160.85 153.97C2189.89 184.226 2204.98 224.139 2204.98 273.601L2204.97 275.939Z" fill="#BDBBB0"/>
<path d="M1871.33 113.4C1863.45 112.275 1857.16 111.678 1853.44 111.607L1852.73 111.601C1805.93 111.601 1772.93 133.201 1752.53 175.801V118.801H1671.53V428.4H1756.73V286.801C1756.73 257.269 1763.12 234.133 1775.91 216.248L1776.53 215.4C1789.73 197.4 1810.13 188.4 1838.33 188.4L1840.15 188.414C1849.35 188.555 1860.08 189.75 1871.33 192V113.4ZM1872.53 193.464L1871.09 193.177C1859.15 190.789 1847.83 189.601 1838.33 189.601C1810.4 189.601 1790.41 198.495 1777.49 216.11C1764.49 233.848 1757.93 256.976 1757.93 286.801V429.601H1670.33V117.601H1753.73V170.707C1763.69 151.503 1776.42 136.799 1792.08 126.717C1808.95 115.847 1829.14 110.4 1852.73 110.4C1856.18 110.4 1862.26 110.937 1869.94 111.994L1871.5 112.213L1872.53 112.359V193.464Z" fill="#BDBBB0"/>
<path d="M1567.39 342.601C1566.94 339.451 1566.83 334.951 1566.8 329.101L1566.79 322.801V177H1629.79V118.801H1566.79V25.2002H1482.19V118.801H1430.59V176.4H1482.19V337.2L1482.19 338.936C1482.4 375.185 1488.99 399.807 1501.99 412.801C1514.98 425.794 1540.19 431.811 1576.45 431.996L1578.19 432C1591.39 432 1608.79 431.401 1629.79 429.601V364.801C1622.59 366.001 1614.19 366 1603.99 366V364.801C1614.22 364.801 1622.51 364.797 1629.59 363.617L1630.99 363.384V430.702L1629.89 430.796C1608.86 432.599 1591.42 433.2 1578.19 433.2C1559.53 433.2 1543.68 431.697 1530.8 428.516C1517.93 425.336 1507.95 420.458 1501.14 413.648C1487.58 400.084 1480.99 374.444 1480.99 337.2V177.601H1429.39V117.601H1480.99V24H1567.99V117.601H1630.99V178.2H1567.99V322.801L1568 329.108C1568.03 334.942 1568.14 339.361 1568.58 342.431L1568.59 342.515V342.601L1568.59 342.965C1568.69 346.722 1570.32 350.58 1572.64 355.223C1574.83 359.039 1578.03 361.751 1582.27 362.927L1582.68 363.036C1587.33 364.199 1594.41 364.801 1603.99 364.801V366C1594.99 366 1588.1 365.473 1583.32 364.418L1582.39 364.2C1577.59 363 1573.99 360.001 1571.59 355.801C1569.26 351.151 1567.5 347.063 1567.39 342.994L1567.39 342.601Z" fill="#BDBBB0"/>
<path d="M1203.62 326.4L1203.72 327.497C1205.2 344.649 1211.38 357.204 1222.08 365.502C1232.82 373.826 1248.27 378 1268.52 378V379.2C1227.72 379.2 1205.52 362.4 1202.52 327.601H1121.52C1122.12 364.8 1135.92 392.4 1162.92 410.4C1190.52 428.4 1224.72 437.4 1266.72 437.4C1311.12 437.4 1345.32 428.4 1370.52 409.2C1395.33 390.891 1407.93 365.605 1408.31 333.914L1408.32 332.4C1408.32 319.2 1405.92 307.2 1400.52 296.4C1395.72 286.2 1389.72 277.801 1382.52 271.801C1375.92 265.801 1366.32 259.8 1353.72 255C1341.72 250.2 1330.92 246.6 1322.52 244.2C1314.12 241.8 1302.12 239.4 1287.72 237C1285.92 236.4 1282.92 235.8 1278.12 235.2C1253.52 229.8 1236.12 225.001 1226.52 220.801C1217.22 216.151 1212.43 208.685 1212.14 198.404L1212.12 197.4C1212.12 188.1 1216.06 180.489 1223.95 175.113L1224.72 174.601C1233.12 169.201 1245.12 166.801 1260.12 166.801L1261.8 166.81C1278.98 166.992 1292.22 170.007 1301.52 176.4C1310.82 182.213 1316.18 193.093 1318.69 207.95L1318.92 209.4L1398.72 208.801C1397.52 175.201 1384.32 150.001 1359.72 133.801C1334.92 118.445 1303.71 110.065 1266.12 109.807L1264.32 109.801C1221.12 109.801 1187.52 118.201 1164.12 134.4C1140.12 151.2 1128.72 174.601 1128.72 204.601L1128.73 206.161C1128.8 213.898 1129.4 220.613 1130.52 226.801C1131.72 234.001 1134.72 240.001 1138.32 245.4C1141.92 250.8 1145.52 255.6 1148.52 259.2C1152.12 263.4 1156.92 267.001 1163.52 270.601C1170.12 274.201 1175.52 276.6 1179.12 279C1183.32 281.4 1189.92 283.201 1198.32 285.601C1206.72 288.001 1213.32 289.8 1216.92 291C1220.52 292.2 1227.12 293.4 1236.72 295.2C1246.32 297.6 1252.92 298.8 1255.32 299.4C1256.52 300 1258.32 300.601 1260.12 300.601C1285.32 306.601 1302.12 311.4 1311.12 316.2C1320.72 321 1324.92 329.401 1324.92 340.801L1324.91 341.917C1324.62 353.361 1319.8 362.025 1309.92 369L1309.44 369.335C1299.29 376.294 1285.65 379.2 1268.52 379.2V378C1285.81 378 1299.32 375.015 1309.23 368.021C1319.13 361.034 1323.72 352.391 1323.72 340.801C1323.72 335.244 1322.7 330.504 1320.57 326.6C1318.45 322.708 1315.19 319.573 1310.59 317.273L1310.57 317.267L1310.56 317.259C1301.73 312.553 1285.14 307.792 1259.97 301.797C1258.06 301.766 1256.21 301.157 1254.93 300.54C1253.73 300.247 1251.56 299.811 1248.47 299.148C1245.32 298.474 1241.27 297.573 1236.47 296.374C1226.95 294.588 1220.24 293.371 1216.54 292.139C1213.87 291.247 1209.51 290.02 1203.95 288.445L1197.99 286.754C1189.94 284.452 1183.31 282.65 1178.94 280.274L1178.53 280.042L1178.49 280.021L1178.46 279.999C1176.72 278.841 1174.53 277.669 1171.9 276.317C1169.61 275.143 1167.01 273.838 1164.18 272.318L1162.95 271.654C1156.48 268.126 1151.65 264.558 1147.96 260.387L1147.61 259.981L1147.61 259.975L1147.6 259.969C1144.76 256.56 1141.4 252.097 1138 247.077L1137.32 246.066C1133.67 240.58 1130.58 234.42 1129.34 226.998C1128.13 220.319 1127.52 213.051 1127.52 204.601C1127.52 174.239 1139.09 150.458 1163.43 133.417L1163.44 133.414C1187.12 117.023 1220.99 108.601 1264.32 108.601C1302.29 108.601 1333.92 116.778 1359.16 132.048L1360.35 132.78L1360.37 132.789L1360.38 132.798C1384.96 148.985 1398.29 174.031 1399.86 207.173L1399.92 208.758L1399.97 209.991L1317.89 210.608L1317.74 209.583C1315.39 194.36 1310.21 183.488 1301.31 177.69L1300.89 177.418L1300.86 177.404L1300.84 177.39C1291.54 170.991 1278.02 168 1260.12 168C1245.21 168 1233.49 170.392 1225.37 175.609C1217.31 180.791 1213.32 188.213 1213.32 197.4L1213.34 198.369C1213.47 203.168 1214.62 207.272 1216.75 210.722C1219 214.393 1222.41 217.397 1227.03 219.713C1236.51 223.854 1253.78 228.626 1278.33 234.018C1283.03 234.607 1286.09 235.205 1288 235.83C1301.47 238.077 1312.88 240.33 1321.22 242.593L1322.85 243.047C1331.29 245.458 1342.13 249.071 1354.17 253.886C1366.87 258.728 1376.6 264.797 1383.33 270.91C1390.67 277.043 1396.75 285.58 1401.6 295.863C1407.09 306.861 1409.52 319.053 1409.52 332.4L1409.51 333.932C1409.12 365.972 1396.36 391.612 1371.25 410.154C1345.76 429.571 1311.27 438.601 1266.72 438.601C1225.21 438.601 1191.19 429.842 1163.58 412.25L1162.27 411.405L1162.26 411.398C1135.3 393.43 1121.37 366.02 1120.36 329.372L1120.32 327.62L1120.3 326.4H1203.62Z" fill="#BDBBB0"/>
<path d="M778.791 275.4C778.791 227.145 793.276 187.239 822.909 155.786C851.955 124.32 889.484 108.601 935.392 108.601C982.502 108.601 1020.05 124.924 1047.9 157.014C1075.74 189.089 1089.59 232.597 1089.59 286.801V296.4H867.597C867.79 322.619 874.332 342.288 886.478 355.591L886.486 355.601L886.494 355.61C898.804 369.679 916.431 376.2 938.991 376.2V377.4L937.926 377.396C915.63 377.192 897.995 370.575 885.592 356.4C872.992 342.6 866.392 322.2 866.392 295.2H1088.39V286.801C1088.39 233.645 1075.02 190.953 1048.28 159.3L1046.99 157.801C1019.82 126.498 983.352 110.311 937.578 109.812L935.392 109.801C889.792 109.801 852.591 125.401 823.791 156.601C794.391 187.801 779.991 227.401 779.991 275.4L780.002 277.699C780.445 325.817 794.842 364.059 823.191 393C851.991 423 890.391 437.4 937.791 437.4C973.229 437.4 1003.43 428.679 1028.98 410.665L1030.19 409.801C1055.99 391.801 1073.99 366 1083.59 332.4H1001.99C989.991 362.4 968.991 377.4 938.991 377.4V376.2C953.783 376.2 966.279 372.506 976.544 365.174C986.815 357.837 994.941 346.795 1000.88 331.955L1001.18 331.2H1085.18L1084.75 332.73C1075.08 366.564 1056.93 392.601 1030.89 410.772L1030.89 410.773C1004.86 429.543 974.003 438.601 937.791 438.601C890.134 438.6 851.401 424.112 822.334 393.839V393.84C793.274 364.174 778.791 324.851 778.791 275.4ZM935.744 171.605C955.678 171.808 970.961 178.407 981.592 191.4C992.992 204.6 999.592 220.8 1001.39 241.2H865.791C868.191 219.6 875.991 202.8 887.991 190.2C900.591 178.2 916.191 171.601 934.791 171.601L935.744 171.605ZM934.791 172.801C916.515 172.801 901.217 179.27 888.84 191.049C877.3 203.175 869.683 219.283 867.142 240H1000.07C998.159 220.745 991.86 205.386 981.205 192.796L980.684 192.185L980.673 192.173L980.663 192.16C970.136 179.294 954.909 172.801 934.791 172.801Z" fill="#BDBBB0"/>
<path d="M523.328 118.801H437.528V327C437.528 363.6 446.529 391.201 465.729 409.801C484.928 428.401 511.328 437.4 545.528 437.4C588.728 437.4 622.328 420 646.328 384.601V428.4H727.328V118.801H642.729V278.4L642.725 279.773C642.371 337.649 619.581 366 575.528 366V364.801C597.448 364.801 613.857 357.707 624.829 343.517C635.846 329.268 641.528 307.678 641.528 278.4V117.601H728.528V429.601H645.128V388.42C621.057 422.044 587.816 438.601 545.528 438.601C511.652 438.601 485.216 429.819 465.812 411.54L464.894 410.662C445.374 391.753 436.328 363.782 436.328 327V117.601H524.528L524.531 300.17C524.548 310.032 524.68 317.608 525.712 323.803C526.861 330.695 528.558 336.991 531.876 343.803L532.201 344.464L532.22 344.501L532.236 344.539C535.113 351.442 540.291 356.64 547.265 360.127C554.204 363.596 563.568 364.801 575.528 364.801V366C563.903 366 554.53 364.875 547.41 361.531L546.729 361.2C539.529 357.6 534.128 352.2 531.128 345C527.528 337.8 525.728 331.2 524.528 324C523.478 317.7 523.347 310.022 523.331 300.162L523.328 118.801Z" fill="#BDBBB0"/>
<path d="M272.399 1.2002V287.4L96.5996 1.2002H1.2002V428.4H91.7998V141.601L268.8 428.4H362.399V1.2002H272.399ZM363.6 429.601H268.13L93 145.83V429.601H0V0H97.2715L97.6221 0.572266L271.2 283.155V0H363.6V429.601Z" fill="#BDBBB0"/>
</svg>
