<?xml version="1.0" encoding="UTF-8"?>
<svg id="Capa_1" xmlns="http://www.w3.org/2000/svg" version="1.1" viewBox="0 0 1920 1080">
  <!-- Generator: Adobe Illustrator 30.0.0, SVG Export Plug-In . SVG Version: 2.1.1 Build 123)  -->
  <defs>
    <style>
      .st0 {
        fill: #fff;
      }
    </style>
  </defs>
  <g>
    <path class="st0" d="M1793.7,675.7c-12.4,0-22.4-10.1-22.4-22.4s10.1-22.4,22.4-22.4,22.4,10.1,22.4,22.4-10.1,22.4-22.4,22.4ZM1793.7,634.2c-10.5,0-19,8.5-19,19s8.5,19,19,19,19-8.5,19-19-8.5-19-19-19Z"/>
    <path class="st0" d="M1796.2,645.7c.7,0,1.4.1,1.9.4.6.2,1.1.6,1.5,1,.4.4.7.9.9,1.5.2.6.3,1.2.3,1.8,0,1-.2,1.9-.6,2.6-.4.7-1,1.3-1.9,1.7h0c.4.2.8.4,1.1.6.3.3.5.6.7.9.2.4.3.7.4,1.2,0,.4.1.9.2,1.3,0,.3,0,.6,0,.9s0,.7,0,1.1c0,.4,0,.7.2,1.1,0,.3.2.6.4.9h-3.5c-.2-.5-.3-1.2-.4-1.9,0-.7-.1-1.5-.2-2.1-.1-.9-.4-1.5-.8-1.9-.4-.4-1-.6-1.9-.6h-3.5v6.6h-3.5v-16.9h8.7ZM1795,653.3c.8,0,1.4-.2,1.8-.6.4-.4.6-1,.6-1.8s-.2-1.4-.6-1.8c-.4-.4-1-.6-1.8-.6h-3.9v4.8h3.9Z"/>
  </g>
  <g>
    <path class="st0" d="M250,613.4c0,44-29.2,68-73.6,68s-73.6-26.6-73.6-67.6v-34.5h48.3v25c0,22,6.6,35.5,25.6,35.5s25-9.5,25-35.5v-8.9c0-47-98.8-33.2-98.8-108v-21.3c0-40.1,25.9-67.6,73.2-67.6s73.9,24.6,73.9,68v26.3h-48.3v-17.7c0-26.3-10.5-34.8-25.3-34.8s-25.3,11.5-25.3,35.1v4.3c0,49.6,98.8,26.3,98.8,109v25Z"/>
    <path class="st0" d="M271,613.4v-147.1c0-43.3,28.9-68,73.6-68s73.6,24.6,73.6,68v147.1c0,43.3-28.6,68-73.6,68s-73.6-24.6-73.6-68ZM369.9,475.1c0-22.3-6.9-35.1-25.3-35.1s-25.3,12.2-25.3,35.1v129.4c0,23,7.6,35.1,25.3,35.1s25.3-12.8,25.3-35.1v-129.4Z"/>
    <path class="st0" d="M541.6,562.8h48.3v50.6c0,43.3-28.6,68-73.6,68s-73.6-24.6-73.6-68v-147.1c0-43.3,28.9-68,73.6-68s73.6,24.6,73.6,68v41.7h-48.3v-32.8c0-22.3-6.9-35.1-25.3-35.1s-25.3,12.2-25.3,35.1v129.4c0,23,7.6,35.1,25.3,35.1s25.3-12.8,25.3-35.1v-41.7Z"/>
    <path class="st0" d="M614.5,675.8v-271.9h48.3v271.9h-48.3Z"/>
    <path class="st0" d="M787.9,675.8l-7.6-57.5h-47l-7.6,57.5h-47.9l39.7-271.9h78.8l39.4,271.9h-47.9ZM757,439.7l-18.7,138.6h36.8l-18.1-138.6Z"/>
    <path class="st0" d="M851.2,675.8v-271.9h48.3v231.5h61.4v40.4h-109.7Z"/>
    <path class="st0" d="M1122.8,675.8c-3.6-8.5-3.6-32.2-3.6-49.6v-41c0-19.4-7.9-26.6-21.7-26.6h-28.9v117.2h-48.3v-271.9h92.3c45.6,0,54.8,29.6,54.8,62.1v9.2c0,24.6-1.6,58.5-38.7,63.7,37.8,4.3,38.7,32.2,38.7,57.8v40.7c0,15.1.3,31.5,2.6,38.4h-47.3ZM1119.2,473.2c0-19.7-4.9-28.9-22-28.9h-28.6v73.9h29.2c16.4,0,21.3-8.5,21.3-25.9v-19Z"/>
    <path class="st0" d="M1189.8,613.4v-147.1c0-43.3,28.9-68,73.6-68s73.6,24.6,73.6,68v147.1c0,43.3-28.6,68-73.6,68s-73.6-24.6-73.6-68ZM1288.6,475.1c0-22.3-6.9-35.1-25.3-35.1s-25.3,12.2-25.3,35.1v129.4c0,23,7.6,35.1,25.3,35.1s25.3-12.8,25.3-35.1v-129.4Z"/>
    <path class="st0" d="M1361.5,613.4v-147.1c0-43.3,28.9-68,73.6-68s73.6,24.6,73.6,68v147.1c0,43.3-28.6,68-73.6,68s-73.6-24.6-73.6-68ZM1460.4,475.1c0-22.3-6.9-35.1-25.3-35.1s-25.3,12.2-25.3,35.1v129.4c0,23,7.6,35.1,25.3,35.1s25.3-12.8,25.3-35.1v-129.4Z"/>
    <path class="st0" d="M1700.1,675.8l2.3-188.2-39.7,188.2h-45l-39.7-188.2,2.3,188.2h-44.7v-271.9h72.2l32.2,162.9,32.8-162.9h71.6v271.9h-44.3Z"/>
  </g>
</svg>